<svg id="Layer_1" data-name="Layer 1" xmlns="http://www.w3.org/2000/svg" viewBox="0 0 289.41 289.41"><defs><style>.cls-1{fill:#bcbec0;}</style></defs><title>logo</title><path class="cls-1" d="M297,461.71c-79.79,0-144.71-64.92-144.71-144.71S217.21,172.29,297,172.29,441.71,237.21,441.71,317,376.79,461.71,297,461.71Zm0-249.42A104.71,104.71,0,1,0,401.71,317,104.84,104.84,0,0,0,297,212.29Z" transform="translate(-152.29 -172.29)"/><path class="cls-1" d="M315,322.8A18.25,18.25,0,0,1,296.74,341h0A18.24,18.24,0,0,1,278.5,322.8V250.86a18.25,18.25,0,0,1,18.24-18.25h0A18.25,18.25,0,0,1,315,250.86Z" transform="translate(-152.29 -172.29)"/><path class="cls-1" d="M336.83,292.1a18.24,18.24,0,0,1,22.81,12.06h0A18.25,18.25,0,0,1,347.59,327l-45.47,14.08A18.24,18.24,0,0,1,279.31,329h0a18.24,18.24,0,0,1,12.06-22.81Z" transform="translate(-152.29 -172.29)"/></svg>