<svg id="Layer_1" data-name="Layer 1" xmlns="http://www.w3.org/2000/svg" viewBox="0 0 100.33 127.67"><defs><style>.cls-1{fill:none;stroke:#fff;stroke-miterlimit:10;stroke-width:5px;}.cls-2{fill:#fff;}</style></defs><title>none</title><rect class="cls-1" x="2.5" y="2.5" width="95.33" height="122.67" rx="12" ry="12"/><path class="cls-2" d="M178.55,545.61a7.05,7.05,0,1,1,7-7.05A7.05,7.05,0,0,1,178.55,545.61Zm0-12.15a5.1,5.1,0,1,0,5.1,5.1A5.11,5.11,0,0,0,178.55,533.46Z" transform="translate(-152.5 -504.01)"/><path class="cls-2" d="M179.43,538.84a.89.89,0,0,1-.89.89h0a.89.89,0,0,1-.89-.89v-3.5a.89.89,0,0,1,.89-.89h0a.89.89,0,0,1,.89.89Z" transform="translate(-152.5 -504.01)"/><path class="cls-2" d="M180.49,537.35a.88.88,0,0,1,1.11.59h0a.88.88,0,0,1-.58,1.11l-2.22.68a.89.89,0,0,1-1.11-.58h0a.9.9,0,0,1,.59-1.12Z" transform="translate(-152.5 -504.01)"/><path class="cls-2" d="M178.77,574.91a7,7,0,1,1,7-7A7.05,7.05,0,0,1,178.77,574.91Zm0-12.14a5.1,5.1,0,1,0,5.1,5.1A5.11,5.11,0,0,0,178.77,562.77Z" transform="translate(-152.5 -504.01)"/><path class="cls-2" d="M179.65,568.15a.89.89,0,0,1-.89.89h0a.89.89,0,0,1-.89-.89v-3.5a.89.89,0,0,1,.89-.89h0a.89.89,0,0,1,.89.89Z" transform="translate(-152.5 -504.01)"/><path class="cls-2" d="M180.71,566.65a.89.89,0,0,1,1.11.59h0a.88.88,0,0,1-.58,1.11L179,569a.89.89,0,0,1-1.11-.59h0a.89.89,0,0,1,.59-1.11Z" transform="translate(-152.5 -504.01)"/><path class="cls-2" d="M178.55,604.22a7,7,0,1,1,7-7.05A7.05,7.05,0,0,1,178.55,604.22Zm0-12.15a5.1,5.1,0,1,0,5.1,5.1A5.11,5.11,0,0,0,178.55,592.07Z" transform="translate(-152.5 -504.01)"/><path class="cls-2" d="M179.43,597.45a.89.89,0,0,1-.89.89h0a.89.89,0,0,1-.89-.89V594a.89.89,0,0,1,.89-.89h0a.89.89,0,0,1,.89.89Z" transform="translate(-152.5 -504.01)"/><path class="cls-2" d="M180.49,596a.89.89,0,0,1,1.11.59h0a.88.88,0,0,1-.58,1.11l-2.22.68a.88.88,0,0,1-1.11-.58h0a.89.89,0,0,1,.59-1.11Z" transform="translate(-152.5 -504.01)"/></svg>